<?xml version="1.0" encoding="UTF-8" standalone="no"?>
<!-- Created with Inkscape (http://www.inkscape.org/) -->

<svg
   width="105mm"
   height="105mm"
   viewBox="0 0 105 105"
   version="1.1"
   id="svg5"
   inkscape:version="1.1.2 (0a00cf5339, 2022-02-04)"
   sodipodi:docname="balakosa.svg"
   xmlns:inkscape="http://www.inkscape.org/namespaces/inkscape"
   xmlns:sodipodi="http://sodipodi.sourceforge.net/DTD/sodipodi-0.dtd"
   xmlns="http://www.w3.org/2000/svg"
   xmlns:svg="http://www.w3.org/2000/svg">
  <sodipodi:namedview
     id="namedview7"
     pagecolor="#ffffff"
     bordercolor="#666666"
     borderopacity="1.0"
     inkscape:pageshadow="2"
     inkscape:pageopacity="0.0"
     inkscape:pagecheckerboard="0"
     inkscape:document-units="mm"
     showgrid="false"
     height="105mm"
     inkscape:zoom="1.2810466"
     inkscape:cx="53.862209"
     inkscape:cy="181.88253"
     inkscape:window-width="1920"
     inkscape:window-height="1015"
     inkscape:window-x="0"
     inkscape:window-y="28"
     inkscape:window-maximized="1"
     inkscape:current-layer="layer1" />
  <defs
     id="defs2" />
  <g
     inkscape:label="Layer 1"
     inkscape:groupmode="layer"
     id="layer1">
    <g
       id="g1244"
       inkscape:export-filename="/home/albert/www/balakosa/public/assets/g1244.png"
       inkscape:export-xdpi="151.64999"
       inkscape:export-ydpi="151.64999">
      <rect
         style="fill:#d5e5ff;stroke-width:0.418187;stroke-linecap:round;stroke-linejoin:round;paint-order:stroke fill markers"
         id="rect1084"
         width="97.994232"
         height="97.994232"
         x="3.5102234"
         y="3.6558998"
         ry="4.8181" />
      <path
         style="fill:#5599ff;stroke-width:0.135611"
         d="m 13.659523,81.979647 c 0.05384,-12.368324 0.0018,-11.64416 1.05125,-14.614349 2.800816,-7.926542 10.505055,-13.130401 18.915028,-12.776232 5.055912,0.212922 9.247653,2.058141 12.822363,5.644463 3.450585,3.46179 5.3292,7.560713 5.645994,12.318909 l 0.08351,1.254406 h 1.586431 1.58643 l 0.08351,-1.254406 C 55.870993,65.98929 59.67071,60.061157 65.48132,56.877141 c 5.828186,-3.19365 13.185479,-3.070617 18.917178,0.316343 4.69822,2.776262 7.995449,7.378261 9.185154,12.81988 0.351466,1.607602 0.359902,5.945759 0.01455,7.544399 -1.312949,6.079672 -5.171869,11.039436 -10.592301,13.613968 -1.531421,0.727373 -2.583325,1.102009 -4.289418,1.527674 l -1.152697,0.287593 -31.976331,0.04055 -31.976331,0.04055 z M 29.977783,51.08141 C 25.772931,50.427673 22.222447,48.611012 19.169479,45.551165 16.627633,43.003594 14.940597,39.925264 13.993652,36.10685 13.716865,34.990752 13.706258,34.602129 13.659528,23.867912 l -0.04827,-11.08624 h 19.268744 19.268735 l -0.04732,10.95063 c -0.04542,10.50986 -0.05866,10.999752 -0.328835,12.17113 -1.183616,5.131561 -3.900455,9.17479 -8.130167,12.099404 -3.794443,2.623654 -9.019316,3.800791 -13.664634,3.078574 z m 41.768335,0.0089 C 67.542379,50.405188 64.101549,48.637573 61.078664,45.610263 58.269143,42.796631 56.67515,39.889857 55.75563,35.903285 55.48544,34.731874 55.472211,34.242073 55.426784,23.726222 l -0.04732,-10.956558 11.092234,0.04812 c 9.939319,0.04311 11.194398,0.07251 12.075177,0.282726 7.832304,1.869413 13.358497,7.433745 15.036991,15.140727 0.35808,1.644201 0.357986,5.9524 0,7.590603 -0.596368,2.7277 -1.865068,5.564074 -3.408894,7.621113 -1.055465,1.406334 -3.351462,3.629772 -4.625382,4.479227 -2.1671,1.445034 -4.495671,2.441752 -6.905105,2.955656 -1.787907,0.38134 -5.1884,0.48116 -6.89818,0.202495 z"
         id="path962" />
    </g>
  </g>
</svg>
